<svg width="52" height="52" viewBox="0 0 52 52" fill="none" xmlns="http://www.w3.org/2000/svg">
<path fill-rule="evenodd" clip-rule="evenodd" d="M51 26C51 12.1917 39.8059 1 26 1C12.1941 1 1 12.1917 1 26C1 39.8059 12.1941 51 26 51C39.8059 51 51 39.8059 51 26Z" stroke="white" stroke-width="0.625"/>
<path fill-rule="evenodd" clip-rule="evenodd" d="M27.1014 38.5H13.5L18.8847 32.9107L18.9907 32.9082L31.612 32.9031C31.848 32.9031 32.0744 32.8069 32.2405 32.6346L32.8088 32.0442C32.9172 31.9327 32.9148 31.7478 32.8088 31.6338L26.5427 24.9576L30.3549 21L34.5668 25.4896C36.4813 27.5292 36.4693 30.8154 34.5813 32.9031L34.5909 32.9006L34.4729 33.0248L34.3477 33.1565L34.2899 33.2148L32.4597 35.115L30.7017 36.9393C29.7312 37.9477 28.4548 38.5025 27.1014 38.5Z" fill="#91C4BC"/>
<path fill-rule="evenodd" clip-rule="evenodd" d="M24.8986 13.5025L38.5 13.5L33.1153 19.091L33.0093 19.0935L20.388 19.0986C20.152 19.0986 19.9256 19.1948 19.7595 19.3671L19.1911 19.9574C19.0828 20.0688 19.0852 20.2538 19.1911 20.3678L25.4573 27.043L21.6451 31L17.4332 26.511C15.5187 24.4717 15.5307 21.186 17.4187 19.0986L17.4091 19.1011L17.5271 18.977L17.6523 18.8453L17.7101 18.787L19.5403 16.887L21.2983 15.063C22.2688 14.0548 23.5452 13.5 24.8986 13.5025Z" fill="#C5C58F"/>
</svg>
