<svg width="82" height="82" viewBox="0 0 82 82" fill="none" xmlns="http://www.w3.org/2000/svg">
<path fill-rule="evenodd" clip-rule="evenodd" d="M81 41C81 18.9067 63.0895 1 41 1C18.9105 1 1 18.9067 1 41C1 63.0895 18.9105 81 41 81C63.0895 81 81 63.0895 81 41Z" stroke="white"/>
<path fill-rule="evenodd" clip-rule="evenodd" d="M42.7623 61H21L29.6155 52.0572L29.7851 52.0531L49.9792 52.045C50.3568 52.045 50.719 51.891 50.9848 51.6153L51.8942 50.6708C52.0675 50.4924 52.0637 50.1965 51.8942 50.014L41.8684 39.3321L47.9678 33L54.7069 40.1834C57.7701 43.4468 57.7509 48.7046 54.73 52.045L54.7455 52.041L54.5567 52.2396L54.3563 52.4504L54.2638 52.5436L51.3355 55.584L48.5227 58.5028C46.9699 60.1162 44.9278 61.004 42.7623 61Z" fill="#91C4BC"/>
<path fill-rule="evenodd" clip-rule="evenodd" d="M39.2377 21.0041L61 21L52.3845 29.9456L52.2149 29.9496L32.0208 29.9577C31.6432 29.9577 31.281 30.1118 31.0152 30.3874L30.1058 31.3318C29.9324 31.5101 29.9363 31.806 30.1058 31.9884L40.1316 42.6688L34.0321 49L27.2931 41.8176C24.2299 38.5547 24.2491 33.2976 27.27 29.9577L27.2545 29.9618L27.4433 29.7632L27.6437 29.5524L27.7362 29.4592L30.6645 26.4192L33.4773 23.5009C35.0301 21.8877 37.0722 21 39.2377 21.0041Z" fill="#C5C58F"/>
</svg>
